Coordinates
version=1
nRows=36
nColumns=33
inDegrees=yes

Units are S.I. units (second, meters, Newtons, ...)
Angles are in degrees.

endheader
time	ground_thorax_rot_x	ground_thorax_rot_y	ground_thorax_rot_z	ground_thorax_tx	ground_thorax_ty	ground_thorax_tz	clav_prot_r	clav_elev_r	scapula_abduction_r	scapula_elevation_r	scapula_upward_rot_r	scapula_winging_r	shoulder_elv_r	plane_of_elev_r	axial_rot_r	elbow_flexion_r	pro_sup_r	wrist_flex_r	wrist_dev_r	clav_prot_l	clav_elev_l	scapula_abduction_l	scapula_elevation_l	scapula_upward_rot_l	scapula_winging_l	shoulder_elv_l	plane_of_elev_l	axial_rot_l	elbow_flexion_l	pro_sup_l	wrist_flex_l	wrist_dev_l	
5.8400	-3.392291	1.956156	10.477849	-0.103665	1.025592	0.010971	17.300798	-12.642243	43.974492	-13.333496	24.701309	-12.833533	-4.307741	-53.552407	122.197700	-32.476474	-118.933751	-6.001362	8.740795	25.239216	-12.414111	-37.604097	-5.631249	-26.777445	12.080023	56.974817	1.044629	10.101405	12.825603	21.377805	18.046394	-6.676358	
5.8500	-3.381747	1.997855	10.417643	-0.103211	1.025839	0.011071	17.246245	-12.536025	43.892131	-13.243208	24.694682	-12.859850	-4.406969	-53.607683	122.175462	-32.434691	-119.712289	-5.748621	8.414027	25.215046	-12.385636	-37.569121	-5.643627	-26.749256	12.068686	56.923938	1.040329	9.945311	12.872095	21.226467	17.764249	-6.649601	
5.8600	-3.363329	2.057022	10.361762	-0.102776	1.026024	0.011174	17.176718	-12.418696	43.775110	-13.139447	24.670102	-12.878487	-4.540801	-53.700778	122.148008	-32.413816	-120.991697	-5.368426	7.877918	25.173288	-12.342208	-37.507569	-5.662695	-26.706342	12.045427	56.851136	1.011370	9.716125	12.970951	20.965144	17.380276	-6.622791	
5.8700	-3.333025	2.134117	10.309731	-0.102435	1.026131	0.011291	17.084889	-12.290996	43.596371	-13.017280	24.604626	-12.879101	-4.701806	-53.833239	122.114820	-32.448768	-122.762881	-4.858026	7.160742	25.106542	-12.275161	-37.408286	-5.698752	-26.654300	12.005710	56.767933	0.947821	9.423604	13.160006	20.611790	16.916819	-6.609604	
5.8800	-3.303529	2.216236	10.285423	-0.102195	1.026179	0.011407	16.986374	-12.206910	43.335207	-12.906238	24.436708	-12.828522	-4.865284	-54.009978	122.089785	-32.601616	-124.917662	-4.258499	6.360315	25.007426	-12.193610	-37.257571	-5.755048	-26.615736	11.937395	56.697366	0.814567	9.096862	13.477977	20.213782	16.498782	-6.641591	
5.8900	-3.282888	2.308206	10.270387	-0.102031	1.026171	0.011521	16.857358	-12.175245	42.950790	-12.813030	24.160971	-12.701473	-5.016511	-54.210370	122.080416	-32.889007	-127.457563	-3.561034	5.539574	24.868747	-12.089528	-37.044556	-5.836299	-26.585150	11.836198	56.656287	0.614963	8.741270	13.947689	19.823667	16.136033	-6.730916	
5.9000	-3.281271	2.392698	10.273468	-0.101965	1.026124	0.011618	16.721261	-12.234020	42.459299	-12.761894	23.750780	-12.487250	-5.134987	-54.433978	122.099454	-33.353237	-130.154960	-2.860000	4.791568	24.695773	-11.966033	-36.777184	-5.947669	-26.579837	11.705245	56.660973	0.336961	8.414558	14.586671	19.476508	15.928319	-6.892985	
5.9100	-3.300573	2.475942	10.275911	-0.101964	1.026041	0.011702	16.553502	-12.372209	41.836784	-12.748599	23.225232	-12.177014	-5.213835	-54.654663	122.152734	-33.991787	-132.928931	-2.198279	4.185124	24.492887	-11.819403	-36.462823	-6.091078	-26.597524	11.549969	56.717098	0.003445	8.124120	15.393984	19.215391	15.852606	-7.119607	
5.9200	-3.327286	2.557719	10.289383	-0.102047	1.025897	0.011788	16.369483	-12.545386	41.123706	-12.739084	22.604414	-11.814823	-5.281035	-54.862762	122.220195	-34.808283	-135.530465	-1.622766	3.749265	24.273897	-11.656684	-36.123033	-6.266253	-26.651747	11.380909	56.810735	-0.366575	7.886470	16.348801	19.039070	15.881940	-7.392294	
5.9300	-3.358769	2.650638	10.297679	-0.102188	1.025710	0.011878	16.150546	-12.744029	40.312889	-12.732790	21.918041	-11.397230	-5.357343	-55.066711	122.285516	-35.784117	-138.106058	-1.111586	3.421078	24.039017	-11.477557	-35.758332	-6.464875	-26.723937	11.199571	56.931770	-0.760007	7.657992	17.429557	18.910251	15.922681	-7.685412	
5.9400	-3.374953	2.744205	10.316079	-0.102420	1.025454	0.011984	15.934961	-12.921726	39.482874	-12.694289	21.190335	-10.988436	-5.477896	-55.278150	122.317511	-36.933269	-140.382576	-0.700255	3.176308	23.801442	-11.289741	-35.389314	-6.687702	-26.831051	11.015295	57.058764	-1.162908	7.477602	18.616643	18.790700	15.968228	-7.982902	
5.9500	-3.374613	2.837276	10.356733	-0.102732	1.025163	0.012098	15.718786	-13.088933	38.625072	-12.631121	20.417648	-10.577825	-5.651345	-55.512475	122.306358	-38.255347	-142.402987	-0.373330	3.010996	23.555702	-11.104674	-35.005449	-6.927931	-26.978675	10.818415	57.192530	-1.584936	7.328529	19.900271	18.684490	16.023912	-8.282803	
5.9600	-3.347114	2.928914	10.420244	-0.103120	1.024837	0.012240	15.512842	-13.208274	37.775352	-12.517276	19.624962	-10.202301	-5.905581	-55.768035	122.220453	-39.743120	-144.036446	-0.100387	2.917402	23.301798	-10.931892	-34.605596	-7.181123	-27.174439	10.605447	57.334436	-2.016451	7.222903	21.261369	18.597606	16.081062	-8.578109	
5.9700	-3.310711	3.014963	10.495987	-0.103551	1.024551	0.012379	15.300309	-13.335208	36.903150	-12.400296	18.810334	-9.812717	-6.226759	-56.069648	122.082807	-41.375003	-145.561627	0.149858	2.844767	23.026202	-10.767485	-34.168198	-7.442960	-27.400375	10.365477	57.493824	-2.473984	7.153967	22.691306	18.521741	16.162621	-8.872836	
5.9800	-3.256051	3.086048	10.570923	-0.104018	1.024290	0.012525	15.085659	-13.418608	36.048107	-12.248561	18.019641	-9.453627	-6.621416	-56.397595	121.900447	-43.109808	-146.854510	0.382316	2.773343	22.735521	-10.599529	-33.705717	-7.723137	-27.656042	10.108594	57.651233	-2.931949	7.187725	24.177734	18.450642	16.257310	-9.161374	
5.9900	-3.190046	3.138927	10.651562	-0.104512	1.024085	0.012668	14.858762	-13.469915	35.192221	-12.072148	17.251393	-9.109164	-7.082970	-56.754756	121.699607	-44.912425	-148.059426	0.616416	2.678384	22.426028	-10.424433	-33.212551	-8.023126	-27.937534	9.832327	57.797649	-3.401466	7.322971	25.716679	18.379507	16.371946	-9.444071	
6.0000	-3.108177	3.171146	10.725472	-0.105028	1.023943	0.012816	14.628141	-13.470650	34.361225	-11.859998	16.523540	-8.800639	-7.608755	-57.132967	121.475491	-46.762698	-149.122788	0.862419	2.548490	22.101813	-10.238912	-32.696162	-8.344131	-28.241528	9.542047	57.926972	-3.877258	7.570111	27.306955	18.297804	16.498192	-9.716697	
6.0100	-3.023728	3.182751	10.799785	-0.105551	1.023926	0.012950	14.388031	-13.477246	33.532084	-11.656538	15.818292	-8.485128	-8.209374	-57.568206	121.214918	-48.658299	-150.201624	1.111069	2.366041	21.748414	-10.051615	-32.131908	-8.679952	-28.569081	9.222063	58.060997	-4.391334	7.882004	28.961741	18.209647	16.670075	-9.966917	
6.0200	-2.928552	3.174180	10.880040	-0.106094	1.024008	0.013074	14.147607	-13.464005	32.724071	-11.440940	15.141758	-8.186982	-8.882324	-58.059810	120.927138	-50.582870	-151.242939	1.376191	2.126838	21.372619	-9.857203	-31.531687	-9.035533	-28.921282	8.880215	58.182494	-4.942418	8.234590	30.683265	18.102342	16.873051	-10.194283	
6.0300	-2.826394	3.148702	10.973633	-0.106663	1.024184	0.013187	13.911166	-13.437497	31.934472	-11.214803	14.480043	-7.902404	-9.627041	-58.616143	120.618930	-52.538737	-152.268311	1.661410	1.830448	20.976017	-9.656753	-30.897784	-9.409701	-29.297482	8.517424	58.294793	-5.544187	8.585055	32.472352	17.972173	17.105426	-10.397904	
6.0400	-2.716737	3.110216	11.074730	-0.107257	1.024443	0.013287	13.683550	-13.402813	31.163699	-10.979084	13.822102	-7.629209	-10.426661	-59.237180	120.294132	-54.524897	-153.293759	1.978542	1.470228	20.561920	-9.451980	-30.235225	-9.795954	-29.687110	8.137350	58.400169	-6.209807	8.886685	34.334565	17.800601	17.355012	-10.575157	
6.0500	-2.607644	3.059163	11.179912	-0.107860	1.024778	0.013366	13.457361	-13.368074	30.398579	-10.740902	13.166683	-7.356173	-11.276674	-59.924612	119.968371	-56.534340	-154.345953	2.327085	1.047493	20.129100	-9.235875	-29.542246	-10.196660	-30.081975	7.740700	58.501137	-6.940848	9.133091	36.262087	17.585339	17.617169	-10.726946	
6.0600	-2.489770	2.994829	11.291085	-0.108479	1.025125	0.013426	13.235882	-13.284856	29.652629	-10.461044	12.524422	-7.117130	-12.157827	-60.651931	119.672701	-58.540012	-155.317707	2.731261	0.569245	19.692513	-8.992534	-28.844897	-10.621841	-30.475337	7.345642	58.564848	-7.719068	9.333006	38.242199	17.308863	17.847766	-10.866920	
6.0700	-2.368173	2.918573	11.403714	-0.109099	1.025471	0.013471	13.019548	-13.160786	28.923237	-10.144369	11.889704	-6.906852	-13.072281	-61.414705	119.395727	-60.533764	-156.186320	3.203992	0.025384	19.250694	-8.725464	-28.139714	-11.064988	-30.859811	6.951263	58.605152	-8.555017	9.472483	40.268549	16.965921	18.032338	-10.997510	
6.0800	-2.241188	2.830260	11.513840	-0.109711	1.025826	0.013488	12.807341	-13.012079	28.207251	-9.804977	11.261567	-6.714083	-14.019105	-62.222684	119.117108	-62.507968	-156.961984	3.752224	-0.602271	18.799450	-8.440205	-27.417946	-11.519693	-31.231190	6.551774	58.632705	-9.454271	9.527747	42.340079	16.558477	18.167790	-11.118475	
6.0900	-2.117613	2.730531	11.621037	-0.110298	1.026195	0.013471	12.591215	-12.860856	27.488429	-9.461344	10.636299	-6.518067	-15.004632	-63.083838	118.827716	-64.458266	-157.675716	4.368446	-1.310682	18.333242	-8.138483	-26.669241	-11.985404	-31.590395	6.140282	58.665885	-10.418932	9.494557	44.447065	16.107612	18.258008	-11.236790	
6.1000	-1.998109	2.620317	11.712207	-0.110852	1.026592	0.013419	12.370852	-12.723117	26.764875	-9.126953	10.011689	-6.309826	-16.037121	-63.996271	118.501873	-66.376404	-158.328537	5.084248	-2.153947	17.843730	-7.828407	-25.875833	-12.445505	-31.916686	5.709786	58.721615	-11.463214	9.344072	46.579206	15.609719	18.281163	-11.350974	
6.1100	-1.883919	2.499323	11.786207	-0.111373	1.026985	0.013345	12.146143	-12.587610	26.037510	-8.792456	9.389409	-6.095973	-17.113272	-64.947421	118.149721	-68.253232	-158.901584	5.896526	-3.117443	17.335967	-7.505310	-25.045890	-12.904171	-32.210038	5.265437	58.796828	-12.576054	9.095367	48.720168	15.079972	18.228720	-11.471854	
6.1200	-1.776281	2.364032	11.831672	-0.111835	1.027419	0.013242	11.913300	-12.484869	25.301390	-8.486433	8.773109	-5.857407	-18.258262	-65.944757	117.725575	-70.069550	-159.420495	6.843215	-4.271607	16.788680	-7.183117	-24.138704	-13.340419	-32.449926	4.787739	58.912591	-13.779795	8.726185	50.862247	14.517641	18.079965	-11.596123	
6.1300	-1.668821	2.217621	11.864286	-0.112263	1.027807	0.013123	11.672962	-12.356043	24.563165	-8.159367	8.170901	-5.628142	-19.441505	-66.959980	117.289480	-71.812971	-159.818686	7.882457	-5.512669	16.230238	-6.836724	-23.206214	-13.787967	-32.662577	4.303085	59.029064	-15.016386	8.296903	52.976575	13.965472	17.835936	-11.759243	
6.1400	-1.560960	2.062089	11.880718	-0.112644	1.028189	0.012993	11.428181	-12.226808	23.820052	-7.829122	7.569089	-5.394134	-20.685238	-67.988097	116.786388	-73.462082	-160.074132	9.062159	-6.909054	15.644709	-6.485488	-22.217499	-14.222303	-32.831918	3.798063	59.168871	-16.313982	7.772737	55.053161	13.427680	17.465235	-11.974906	
6.1500	-1.444013	1.903916	11.903193	-0.113017	1.028484	0.012863	11.185524	-12.043855	23.082937	-7.448266	6.968280	-5.187220	-21.948094	-69.008046	116.275169	-75.015367	-160.149330	10.304716	-8.323693	15.069167	-6.109156	-21.240854	-14.679354	-32.998172	3.303121	59.292457	-17.611763	7.212817	57.068974	12.953378	17.008255	-12.272832	
6.1600	-1.318176	1.746868	11.927583	-0.113366	1.028753	0.012733	10.944784	-11.839439	22.344560	-7.040889	6.356151	-4.987154	-23.259575	-70.013602	115.686624	-76.447121	-160.029515	11.665990	-9.844916	14.484114	-5.729888	-20.238689	-15.129410	-33.139595	2.801697	59.426102	-18.944355	6.569974	59.014426	12.545677	16.434563	-12.668500	
6.1700	-1.178921	1.591756	11.958682	-0.113706	1.028946	0.012604	10.704065	-11.571254	21.615149	-6.579117	5.758294	-4.819481	-24.609388	-70.989309	115.060299	-77.750118	-159.672772	13.101053	-11.381426	13.912945	-5.326290	-19.252833	-15.599849	-33.274961	2.314155	59.534161	-20.257288	5.901591	60.860999	12.243193	15.765794	-13.191400	
6.1800	-1.035490	1.434747	11.983156	-0.114007	1.029152	0.012484	10.469180	-11.294147	20.899040	-6.109057	5.166875	-4.656395	-26.048971	-71.931206	114.306413	-78.899617	-159.110955	14.666173	-13.040649	13.325355	-4.929711	-18.226226	-16.049165	-33.373660	1.814040	59.658787	-21.612769	5.159879	62.613476	12.025662	14.985682	-13.831812	
6.1900	-0.887686	1.266356	11.998286	-0.114275	1.029330	0.012362	10.237058	-10.973116	20.215664	-5.617340	4.628191	-4.523150	-27.578675	-72.832173	113.471054	-79.881251	-158.335328	16.316181	-14.730921	12.738618	-4.515236	-17.190424	-16.507656	-33.453005	1.316243	59.760885	-22.958173	4.421453	64.253446	11.918691	14.123892	-14.602093	
